<mxfile host="app.diagrams.net" modified="2023-10-03T14:48:33.691Z" agent="Mozilla/5.0 (Macintosh; Intel Mac OS X 10_15_7) AppleWebKit/537.36 (KHTML, like Gecko) Chrome/117.0.0.0 Safari/537.36" version="21.8.2" etag="jFRlITim6UfDXzFoPFvG" type="github">
  <diagram name="Page-1" id="tG65rsOxo-R3Q1rgLA2W">
    <mxGraphModel>
      <root>
        <mxCell id="0" />
        <mxCell id="1" parent="0" />
      </root>
    </mxGraphModel>
  </diagram>
</mxfile>
